<svg width="32" height="32" viewBox="0 0 32 32" fill="none" xmlns="http://www.w3.org/2000/svg">
<path d="M16 0C24.84 0 32 7.16 32 16C32 24.84 24.84 32 16 32C7.16 32 0 24.84 0 16C0 7.16 7.16 0 16 0ZM18.26 18.76L18.96 5.84H13.04L13.74 18.76H18.26ZM18.08 25.48C18.56 25.02 18.82 24.38 18.82 23.56C18.82 22.72 18.58 22.08 18.1 21.62C17.62 21.16 16.92 20.92 15.98 20.92C15.04 20.92 14.34 21.16 13.84 21.62C13.34 22.08 13.1 22.72 13.1 23.56C13.1 24.38 13.36 25.02 13.86 25.48C14.38 25.94 15.08 26.16 15.98 26.16C16.88 26.16 17.58 25.94 18.08 25.48Z" fill="#C09957"/>
</svg>
